<mxfile host="app.diagrams.net" modified="2021-03-25T08:56:57.723Z" agent="5.0 (Windows NT 10.0; Win64; x64) AppleWebKit/537.36 (KHTML, like Gecko) Chrome/89.0.4389.90 Safari/537.36" etag="8yQZbHR-tnQXmJ-Uqu1p" version="14.4.9" type="github">
  <diagram id="MZrCVbKPcxjubLTzTXuE" name="Page-1">
    <mxGraphModel dx="1038" dy="575" grid="1" gridSize="10" guides="1" tooltips="1" connect="1" arrows="1" fold="1" page="1" pageScale="1" pageWidth="827" pageHeight="1169" math="0" shadow="0">
      <root>
        <mxCell id="0" />
        <mxCell id="1" parent="0" />
        <mxCell id="bp1Jh9y0F7wbUH62DtqD-1" value="" style="shape=umlLifeline;participant=umlEntity;perimeter=lifelinePerimeter;whiteSpace=wrap;html=1;container=1;collapsible=0;recursiveResize=0;verticalAlign=top;spacingTop=36;outlineConnect=0;size=40;" parent="1" vertex="1">
          <mxGeometry x="750" y="80" width="40" height="720" as="geometry" />
        </mxCell>
        <mxCell id="bp1Jh9y0F7wbUH62DtqD-2" value="" style="shape=umlLifeline;participant=umlActor;perimeter=lifelinePerimeter;whiteSpace=wrap;html=1;container=1;collapsible=0;recursiveResize=0;verticalAlign=top;spacingTop=36;outlineConnect=0;" parent="1" vertex="1">
          <mxGeometry x="130" y="80" width="20" height="720" as="geometry" />
        </mxCell>
        <mxCell id="bp1Jh9y0F7wbUH62DtqD-3" value="&lt;font style=&quot;font-size: 23px&quot;&gt;&lt;u&gt;&lt;b&gt;Scénario Happy Day&lt;/b&gt;&lt;/u&gt;&lt;/font&gt;" style="text;html=1;align=center;verticalAlign=middle;resizable=0;points=[];autosize=1;" parent="1" vertex="1">
          <mxGeometry x="335" y="50" width="240" height="20" as="geometry" />
        </mxCell>
        <mxCell id="bp1Jh9y0F7wbUH62DtqD-5" value="1. L&#39;utilisateur clique sur &quot;Rechercher un produit&quot;" style="html=1;verticalAlign=bottom;startArrow=oval;startFill=1;endArrow=block;startSize=8;" parent="1" target="bp1Jh9y0F7wbUH62DtqD-1" edge="1">
          <mxGeometry x="-0.0151" y="20" width="60" relative="1" as="geometry">
            <mxPoint x="140" y="160" as="sourcePoint" />
            <mxPoint x="200" y="160" as="targetPoint" />
            <mxPoint as="offset" />
          </mxGeometry>
        </mxCell>
        <mxCell id="bp1Jh9y0F7wbUH62DtqD-8" value="2. Le système affiche un formulaire de recherche" style="text;html=1;align=center;verticalAlign=middle;resizable=0;points=[];autosize=1;" parent="1" vertex="1">
          <mxGeometry x="304" y="170" width="280" height="20" as="geometry" />
        </mxCell>
        <mxCell id="bp1Jh9y0F7wbUH62DtqD-9" value="" style="html=1;verticalAlign=bottom;startArrow=oval;startFill=1;endArrow=block;startSize=8;" parent="1" target="bp1Jh9y0F7wbUH62DtqD-1" edge="1">
          <mxGeometry width="60" relative="1" as="geometry">
            <mxPoint x="140" y="240" as="sourcePoint" />
            <mxPoint x="499.5" y="240" as="targetPoint" />
          </mxGeometry>
        </mxCell>
        <mxCell id="bp1Jh9y0F7wbUH62DtqD-10" value="3. L&#39;utilisateur rempli le formulaire de recherche" style="text;html=1;align=center;verticalAlign=middle;resizable=0;points=[];autosize=1;" parent="1" vertex="1">
          <mxGeometry x="304" y="210" width="270" height="20" as="geometry" />
        </mxCell>
        <mxCell id="bp1Jh9y0F7wbUH62DtqD-12" value="" style="html=1;verticalAlign=bottom;startArrow=block;startFill=1;endArrow=oval;startSize=8;endFill=1;" parent="1" target="bp1Jh9y0F7wbUH62DtqD-1" edge="1">
          <mxGeometry x="0.0014" y="10" width="60" relative="1" as="geometry">
            <mxPoint x="140.25" y="279.76" as="sourcePoint" />
            <mxPoint x="499.75" y="279.76" as="targetPoint" />
            <mxPoint as="offset" />
          </mxGeometry>
        </mxCell>
        <mxCell id="bp1Jh9y0F7wbUH62DtqD-13" value="4. Le système renvoie le résultat de la recherche" style="text;html=1;align=center;verticalAlign=middle;resizable=0;points=[];autosize=1;" parent="1" vertex="1">
          <mxGeometry x="309" y="250" width="270" height="20" as="geometry" />
        </mxCell>
        <mxCell id="bp1Jh9y0F7wbUH62DtqD-14" value="" style="html=1;verticalAlign=bottom;startArrow=oval;startFill=1;endArrow=block;startSize=8;" parent="1" target="bp1Jh9y0F7wbUH62DtqD-1" edge="1">
          <mxGeometry width="60" relative="1" as="geometry">
            <mxPoint x="140.25" y="320" as="sourcePoint" />
            <mxPoint x="499.75" y="320" as="targetPoint" />
          </mxGeometry>
        </mxCell>
        <mxCell id="bp1Jh9y0F7wbUH62DtqD-15" value="5. L&#39;utilisateur clique sur le produit souhaité" style="text;html=1;align=center;verticalAlign=middle;resizable=0;points=[];autosize=1;" parent="1" vertex="1">
          <mxGeometry x="305" y="290" width="250" height="20" as="geometry" />
        </mxCell>
        <mxCell id="bp1Jh9y0F7wbUH62DtqD-16" value="" style="html=1;verticalAlign=bottom;startArrow=block;startFill=1;endArrow=oval;startSize=8;endFill=1;" parent="1" source="bp1Jh9y0F7wbUH62DtqD-2" target="bp1Jh9y0F7wbUH62DtqD-1" edge="1">
          <mxGeometry x="0.0014" y="10" width="60" relative="1" as="geometry">
            <mxPoint x="160" y="360" as="sourcePoint" />
            <mxPoint x="759.5" y="360" as="targetPoint" />
            <mxPoint as="offset" />
            <Array as="points">
              <mxPoint x="610" y="360" />
            </Array>
          </mxGeometry>
        </mxCell>
        <mxCell id="bp1Jh9y0F7wbUH62DtqD-17" value="6. Le système renvoie la page du produit sélectionné" style="text;html=1;align=center;verticalAlign=middle;resizable=0;points=[];autosize=1;" parent="1" vertex="1">
          <mxGeometry x="305" y="330" width="300" height="20" as="geometry" />
        </mxCell>
        <mxCell id="bp1Jh9y0F7wbUH62DtqD-18" value="" style="html=1;verticalAlign=bottom;startArrow=oval;startFill=1;endArrow=block;startSize=8;" parent="1" target="bp1Jh9y0F7wbUH62DtqD-1" edge="1">
          <mxGeometry width="60" relative="1" as="geometry">
            <mxPoint x="140.25" y="400" as="sourcePoint" />
            <mxPoint x="499.75" y="400" as="targetPoint" />
          </mxGeometry>
        </mxCell>
        <mxCell id="bp1Jh9y0F7wbUH62DtqD-19" value="" style="html=1;verticalAlign=bottom;startArrow=oval;startFill=1;endArrow=block;startSize=8;" parent="1" target="bp1Jh9y0F7wbUH62DtqD-1" edge="1">
          <mxGeometry width="60" relative="1" as="geometry">
            <mxPoint x="140.25" y="480" as="sourcePoint" />
            <mxPoint x="499.75" y="480" as="targetPoint" />
          </mxGeometry>
        </mxCell>
        <mxCell id="bp1Jh9y0F7wbUH62DtqD-20" value="" style="html=1;verticalAlign=bottom;startArrow=block;startFill=1;endArrow=oval;startSize=8;endFill=1;" parent="1" source="bp1Jh9y0F7wbUH62DtqD-2" edge="1">
          <mxGeometry x="0.0014" y="10" width="60" relative="1" as="geometry">
            <mxPoint x="410" y="440" as="sourcePoint" />
            <mxPoint x="769.5" y="440" as="targetPoint" />
            <mxPoint as="offset" />
          </mxGeometry>
        </mxCell>
        <mxCell id="bp1Jh9y0F7wbUH62DtqD-21" value="" style="html=1;verticalAlign=bottom;startArrow=block;startFill=1;endArrow=oval;startSize=8;endFill=1;" parent="1" target="bp1Jh9y0F7wbUH62DtqD-1" edge="1">
          <mxGeometry x="0.0014" y="10" width="60" relative="1" as="geometry">
            <mxPoint x="140.25" y="520" as="sourcePoint" />
            <mxPoint x="499.75" y="520" as="targetPoint" />
            <mxPoint as="offset" />
          </mxGeometry>
        </mxCell>
        <mxCell id="bp1Jh9y0F7wbUH62DtqD-22" value="7. L&#39;utilisateur ajoute le produit au panier" style="text;html=1;align=center;verticalAlign=middle;resizable=0;points=[];autosize=1;" parent="1" vertex="1">
          <mxGeometry x="309" y="370" width="230" height="20" as="geometry" />
        </mxCell>
        <mxCell id="bp1Jh9y0F7wbUH62DtqD-23" value="8. Le système demande si l&#39;utilisateur veut continuer ses achats ou valider le panier" style="text;html=1;align=center;verticalAlign=middle;resizable=0;points=[];autosize=1;" parent="1" vertex="1">
          <mxGeometry x="240" y="410" width="460" height="20" as="geometry" />
        </mxCell>
        <mxCell id="bp1Jh9y0F7wbUH62DtqD-24" value="9.&amp;nbsp; L&#39;utilisateur clique sur valider le panier" style="text;html=1;align=center;verticalAlign=middle;resizable=0;points=[];autosize=1;" parent="1" vertex="1">
          <mxGeometry x="309" y="450" width="240" height="20" as="geometry" />
        </mxCell>
        <mxCell id="bp1Jh9y0F7wbUH62DtqD-26" value="10. Le système affiche un formulaire de connexion" style="text;html=1;align=center;verticalAlign=middle;resizable=0;points=[];autosize=1;" parent="1" vertex="1">
          <mxGeometry x="309" y="490" width="280" height="20" as="geometry" />
        </mxCell>
        <mxCell id="bp1Jh9y0F7wbUH62DtqD-27" value="" style="html=1;verticalAlign=bottom;startArrow=oval;startFill=1;endArrow=block;startSize=8;" parent="1" edge="1">
          <mxGeometry width="60" relative="1" as="geometry">
            <mxPoint x="140.38" y="560" as="sourcePoint" />
            <mxPoint x="769.63" y="560" as="targetPoint" />
          </mxGeometry>
        </mxCell>
        <mxCell id="bp1Jh9y0F7wbUH62DtqD-28" value="11. L&#39;utilisateur rempli le formulaire et le valide" style="text;html=1;align=center;verticalAlign=middle;resizable=0;points=[];autosize=1;" parent="1" vertex="1">
          <mxGeometry x="310" y="530" width="260" height="20" as="geometry" />
        </mxCell>
        <mxCell id="bp1Jh9y0F7wbUH62DtqD-30" value="" style="html=1;verticalAlign=bottom;startArrow=block;startFill=1;endArrow=oval;startSize=8;endFill=1;" parent="1" edge="1">
          <mxGeometry x="0.0014" y="10" width="60" relative="1" as="geometry">
            <mxPoint x="140.38" y="680" as="sourcePoint" />
            <mxPoint x="769.63" y="680" as="targetPoint" />
            <mxPoint as="offset" />
          </mxGeometry>
        </mxCell>
        <mxCell id="bp1Jh9y0F7wbUH62DtqD-31" value="" style="html=1;verticalAlign=bottom;startArrow=block;startFill=1;endArrow=oval;startSize=8;endFill=1;" parent="1" edge="1">
          <mxGeometry x="0.0014" y="10" width="60" relative="1" as="geometry">
            <mxPoint x="140.38" y="600" as="sourcePoint" />
            <mxPoint x="769.63" y="600" as="targetPoint" />
            <mxPoint as="offset" />
          </mxGeometry>
        </mxCell>
        <mxCell id="bp1Jh9y0F7wbUH62DtqD-34" value="" style="html=1;verticalAlign=bottom;startArrow=oval;startFill=1;endArrow=block;startSize=8;" parent="1" edge="1">
          <mxGeometry width="60" relative="1" as="geometry">
            <mxPoint x="140.37" y="640" as="sourcePoint" />
            <mxPoint x="769.6200000000001" y="640" as="targetPoint" />
          </mxGeometry>
        </mxCell>
        <mxCell id="bp1Jh9y0F7wbUH62DtqD-35" value="12. Le système de confirmer les informations de livraison et de facturation" style="text;html=1;align=center;verticalAlign=middle;resizable=0;points=[];autosize=1;" parent="1" vertex="1">
          <mxGeometry x="310" y="574.5" width="410" height="20" as="geometry" />
        </mxCell>
        <mxCell id="bp1Jh9y0F7wbUH62DtqD-36" value="13. L&#39;utilisateur confirme" style="text;html=1;align=center;verticalAlign=middle;resizable=0;points=[];autosize=1;" parent="1" vertex="1">
          <mxGeometry x="310" y="610" width="150" height="20" as="geometry" />
        </mxCell>
        <mxCell id="bp1Jh9y0F7wbUH62DtqD-37" value="14. Le système demande les informations de paiement" style="text;html=1;align=center;verticalAlign=middle;resizable=0;points=[];autosize=1;" parent="1" vertex="1">
          <mxGeometry x="310" y="650" width="310" height="20" as="geometry" />
        </mxCell>
        <mxCell id="bp1Jh9y0F7wbUH62DtqD-38" value="" style="html=1;verticalAlign=bottom;startArrow=oval;startFill=1;endArrow=block;startSize=8;" parent="1" edge="1">
          <mxGeometry width="60" relative="1" as="geometry">
            <mxPoint x="140.37" y="720" as="sourcePoint" />
            <mxPoint x="769.6200000000001" y="720" as="targetPoint" />
          </mxGeometry>
        </mxCell>
        <mxCell id="bp1Jh9y0F7wbUH62DtqD-39" value="15. L&#39;utilisateur rempli et valide le formulaire&amp;nbsp;" style="text;html=1;align=center;verticalAlign=middle;resizable=0;points=[];autosize=1;" parent="1" vertex="1">
          <mxGeometry x="314" y="690" width="250" height="20" as="geometry" />
        </mxCell>
        <mxCell id="bp1Jh9y0F7wbUH62DtqD-40" value="" style="html=1;verticalAlign=bottom;startArrow=block;startFill=1;endArrow=oval;startSize=8;endFill=1;" parent="1" edge="1">
          <mxGeometry x="0.0014" y="10" width="60" relative="1" as="geometry">
            <mxPoint x="140.37" y="760" as="sourcePoint" />
            <mxPoint x="769.6200000000001" y="760" as="targetPoint" />
            <mxPoint as="offset" />
          </mxGeometry>
        </mxCell>
        <mxCell id="bp1Jh9y0F7wbUH62DtqD-41" value="16. Le système envoie une confirmation puis renvoie l&#39;utilisateur à l&#39;accueil" style="text;html=1;align=center;verticalAlign=middle;resizable=0;points=[];autosize=1;" parent="1" vertex="1">
          <mxGeometry x="314" y="730" width="410" height="20" as="geometry" />
        </mxCell>
        <mxCell id="bp1Jh9y0F7wbUH62DtqD-7" value="" style="html=1;verticalAlign=bottom;startArrow=block;startFill=1;endArrow=oval;startSize=8;endFill=1;" parent="1" source="bp1Jh9y0F7wbUH62DtqD-2" target="bp1Jh9y0F7wbUH62DtqD-1" edge="1">
          <mxGeometry x="0.0014" y="10" width="60" relative="1" as="geometry">
            <mxPoint x="410" y="180" as="sourcePoint" />
            <mxPoint x="769.5" y="180" as="targetPoint" />
            <Array as="points">
              <mxPoint x="460" y="200" />
            </Array>
            <mxPoint as="offset" />
          </mxGeometry>
        </mxCell>
        <mxCell id="bp1Jh9y0F7wbUH62DtqD-42" value="" style="shape=umlLifeline;participant=umlActor;perimeter=lifelinePerimeter;whiteSpace=wrap;html=1;container=1;collapsible=0;recursiveResize=0;verticalAlign=top;spacingTop=36;outlineConnect=0;" parent="1" vertex="1">
          <mxGeometry x="130" y="920" width="20" height="300" as="geometry" />
        </mxCell>
        <mxCell id="bp1Jh9y0F7wbUH62DtqD-43" value="" style="shape=umlLifeline;participant=umlEntity;perimeter=lifelinePerimeter;whiteSpace=wrap;html=1;container=1;collapsible=0;recursiveResize=0;verticalAlign=top;spacingTop=36;outlineConnect=0;" parent="1" vertex="1">
          <mxGeometry x="750" y="910" width="40" height="300" as="geometry" />
        </mxCell>
        <mxCell id="bp1Jh9y0F7wbUH62DtqD-44" value="Scénario alternatif : l&#39;utilisateur n&#39;est pas inscrit" style="text;html=1;align=center;verticalAlign=middle;resizable=0;points=[];autosize=1;" parent="1" vertex="1">
          <mxGeometry x="340" y="890" width="260" height="20" as="geometry" />
        </mxCell>
        <mxCell id="bp1Jh9y0F7wbUH62DtqD-45" value="" style="html=1;verticalAlign=bottom;startArrow=oval;startFill=1;endArrow=block;startSize=8;" parent="1" source="bp1Jh9y0F7wbUH62DtqD-42" target="bp1Jh9y0F7wbUH62DtqD-43" edge="1">
          <mxGeometry x="-1" y="71" width="60" relative="1" as="geometry">
            <mxPoint x="360" y="1010" as="sourcePoint" />
            <mxPoint x="770" y="990" as="targetPoint" />
            <Array as="points">
              <mxPoint x="720" y="1000" />
            </Array>
            <mxPoint x="-50" y="21" as="offset" />
          </mxGeometry>
        </mxCell>
        <mxCell id="bp1Jh9y0F7wbUH62DtqD-46" value="11.1 L&#39;utilisateur clique sur s&#39;inscrire&amp;nbsp;" style="text;html=1;align=center;verticalAlign=middle;resizable=0;points=[];autosize=1;" parent="1" vertex="1">
          <mxGeometry x="344" y="970" width="210" height="20" as="geometry" />
        </mxCell>
        <mxCell id="bp1Jh9y0F7wbUH62DtqD-47" value="" style="html=1;verticalAlign=bottom;startArrow=block;startFill=1;endArrow=oval;startSize=8;endFill=1;" parent="1" edge="1">
          <mxGeometry x="0.0014" y="10" width="60" relative="1" as="geometry">
            <mxPoint x="134.37000000000012" y="1040" as="sourcePoint" />
            <mxPoint x="763.6200000000003" y="1040" as="targetPoint" />
            <mxPoint as="offset" />
          </mxGeometry>
        </mxCell>
        <mxCell id="bp1Jh9y0F7wbUH62DtqD-48" value="11.2 Le système affiche un formulaire d&#39;inscription&amp;nbsp;" style="text;html=1;align=center;verticalAlign=middle;resizable=0;points=[];autosize=1;" parent="1" vertex="1">
          <mxGeometry x="300" y="1010" width="280" height="20" as="geometry" />
        </mxCell>
        <mxCell id="bp1Jh9y0F7wbUH62DtqD-49" value="" style="html=1;verticalAlign=bottom;startArrow=oval;startFill=1;endArrow=block;startSize=8;" parent="1" edge="1">
          <mxGeometry x="-1" y="71" width="60" relative="1" as="geometry">
            <mxPoint x="139.78142857142868" y="1080" as="sourcePoint" />
            <mxPoint x="770.21" y="1080" as="targetPoint" />
            <Array as="points">
              <mxPoint x="720.71" y="1080" />
            </Array>
            <mxPoint x="-50" y="21" as="offset" />
          </mxGeometry>
        </mxCell>
        <mxCell id="bp1Jh9y0F7wbUH62DtqD-50" value="" style="html=1;verticalAlign=bottom;startArrow=block;startFill=1;endArrow=oval;startSize=8;endFill=1;" parent="1" edge="1">
          <mxGeometry x="0.0014" y="10" width="60" relative="1" as="geometry">
            <mxPoint x="140.3800000000001" y="1120" as="sourcePoint" />
            <mxPoint x="769.6300000000003" y="1120" as="targetPoint" />
            <mxPoint as="offset" />
          </mxGeometry>
        </mxCell>
        <mxCell id="bp1Jh9y0F7wbUH62DtqD-51" value="11.3 L&#39;utilisateur remplit et valide le formulaire&amp;nbsp;" style="text;html=1;align=center;verticalAlign=middle;resizable=0;points=[];autosize=1;" parent="1" vertex="1">
          <mxGeometry x="300" y="1050" width="260" height="20" as="geometry" />
        </mxCell>
        <mxCell id="bp1Jh9y0F7wbUH62DtqD-52" value="11.4 Le système valide et demande la confirmation de la livraison et de la facturation" style="text;html=1;align=center;verticalAlign=middle;resizable=0;points=[];autosize=1;" parent="1" vertex="1">
          <mxGeometry x="200" y="1100" width="460" height="20" as="geometry" />
        </mxCell>
        <mxCell id="bp1Jh9y0F7wbUH62DtqD-53" value="" style="shape=umlLifeline;participant=umlActor;perimeter=lifelinePerimeter;whiteSpace=wrap;html=1;container=1;collapsible=0;recursiveResize=0;verticalAlign=top;spacingTop=36;outlineConnect=0;" parent="1" vertex="1">
          <mxGeometry x="130" y="1330" width="20" height="300" as="geometry" />
        </mxCell>
        <mxCell id="bp1Jh9y0F7wbUH62DtqD-54" value="" style="shape=umlLifeline;participant=umlEntity;perimeter=lifelinePerimeter;whiteSpace=wrap;html=1;container=1;collapsible=0;recursiveResize=0;verticalAlign=top;spacingTop=36;outlineConnect=0;" parent="1" vertex="1">
          <mxGeometry x="750" y="1320" width="40" height="300" as="geometry" />
        </mxCell>
        <mxCell id="bp1Jh9y0F7wbUH62DtqD-55" value="Scénario alternatif : l&#39;utilisateur modifie informations" style="text;html=1;align=center;verticalAlign=middle;resizable=0;points=[];autosize=1;" parent="1" vertex="1">
          <mxGeometry x="325" y="1300" width="290" height="20" as="geometry" />
        </mxCell>
        <mxCell id="bp1Jh9y0F7wbUH62DtqD-56" value="" style="html=1;verticalAlign=bottom;startArrow=oval;startFill=1;endArrow=block;startSize=8;" parent="1" source="bp1Jh9y0F7wbUH62DtqD-53" target="bp1Jh9y0F7wbUH62DtqD-54" edge="1">
          <mxGeometry x="-1" y="71" width="60" relative="1" as="geometry">
            <mxPoint x="360" y="1420" as="sourcePoint" />
            <mxPoint x="770" y="1400" as="targetPoint" />
            <Array as="points">
              <mxPoint x="720" y="1410" />
            </Array>
            <mxPoint x="-50" y="21" as="offset" />
          </mxGeometry>
        </mxCell>
        <mxCell id="bp1Jh9y0F7wbUH62DtqD-57" value="13.1 L&#39;utilisateur clique sur modifier les informations&amp;nbsp;" style="text;html=1;align=center;verticalAlign=middle;resizable=0;points=[];autosize=1;" parent="1" vertex="1">
          <mxGeometry x="304" y="1380" width="290" height="20" as="geometry" />
        </mxCell>
        <mxCell id="bp1Jh9y0F7wbUH62DtqD-58" value="" style="html=1;verticalAlign=bottom;startArrow=block;startFill=1;endArrow=oval;startSize=8;endFill=1;" parent="1" edge="1">
          <mxGeometry x="0.0014" y="10" width="60" relative="1" as="geometry">
            <mxPoint x="134.37000000000012" y="1450" as="sourcePoint" />
            <mxPoint x="763.6200000000003" y="1450" as="targetPoint" />
            <mxPoint as="offset" />
          </mxGeometry>
        </mxCell>
        <mxCell id="bp1Jh9y0F7wbUH62DtqD-59" value="13.2 Le système affiche un formulaire pour changer les informations" style="text;html=1;align=center;verticalAlign=middle;resizable=0;points=[];autosize=1;" parent="1" vertex="1">
          <mxGeometry x="250" y="1420" width="380" height="20" as="geometry" />
        </mxCell>
        <mxCell id="bp1Jh9y0F7wbUH62DtqD-60" value="" style="html=1;verticalAlign=bottom;startArrow=oval;startFill=1;endArrow=block;startSize=8;" parent="1" edge="1">
          <mxGeometry x="-1" y="71" width="60" relative="1" as="geometry">
            <mxPoint x="139.7814285714287" y="1490" as="sourcePoint" />
            <mxPoint x="770.2100000000003" y="1490" as="targetPoint" />
            <Array as="points">
              <mxPoint x="720.71" y="1490" />
            </Array>
            <mxPoint x="-50" y="21" as="offset" />
          </mxGeometry>
        </mxCell>
        <mxCell id="bp1Jh9y0F7wbUH62DtqD-61" value="" style="html=1;verticalAlign=bottom;startArrow=block;startFill=1;endArrow=oval;startSize=8;endFill=1;" parent="1" edge="1">
          <mxGeometry x="0.0014" y="10" width="60" relative="1" as="geometry">
            <mxPoint x="140.3800000000001" y="1530" as="sourcePoint" />
            <mxPoint x="769.6300000000003" y="1530" as="targetPoint" />
            <mxPoint as="offset" />
          </mxGeometry>
        </mxCell>
        <mxCell id="bp1Jh9y0F7wbUH62DtqD-62" value="13.3&amp;nbsp; L&#39;utilisateur renseigne ses nouvelles informations" style="text;html=1;align=center;verticalAlign=middle;resizable=0;points=[];autosize=1;" parent="1" vertex="1">
          <mxGeometry x="275" y="1460" width="310" height="20" as="geometry" />
        </mxCell>
        <mxCell id="bp1Jh9y0F7wbUH62DtqD-63" value="13.4 Le système envoie une confirmation et demande les informations de paiement" style="text;html=1;align=center;verticalAlign=middle;resizable=0;points=[];autosize=1;" parent="1" vertex="1">
          <mxGeometry x="200" y="1510" width="460" height="20" as="geometry" />
        </mxCell>
        <mxCell id="bp1Jh9y0F7wbUH62DtqD-65" value="" style="shape=umlLifeline;participant=umlActor;perimeter=lifelinePerimeter;whiteSpace=wrap;html=1;container=1;collapsible=0;recursiveResize=0;verticalAlign=top;spacingTop=36;outlineConnect=0;" parent="1" vertex="1">
          <mxGeometry x="130" y="1690" width="20" height="300" as="geometry" />
        </mxCell>
        <mxCell id="bp1Jh9y0F7wbUH62DtqD-66" value="" style="shape=umlLifeline;participant=umlEntity;perimeter=lifelinePerimeter;whiteSpace=wrap;html=1;container=1;collapsible=0;recursiveResize=0;verticalAlign=top;spacingTop=36;outlineConnect=0;" parent="1" vertex="1">
          <mxGeometry x="750" y="1680" width="40" height="300" as="geometry" />
        </mxCell>
        <mxCell id="bp1Jh9y0F7wbUH62DtqD-67" value="Scénario alternatif : le paiement est refusé" style="text;html=1;align=center;verticalAlign=middle;resizable=0;points=[];autosize=1;" parent="1" vertex="1">
          <mxGeometry x="350" y="1660" width="240" height="20" as="geometry" />
        </mxCell>
        <mxCell id="bp1Jh9y0F7wbUH62DtqD-69" value="16.1 Le système&amp;nbsp; renvoie une erreur dans le paiement et demande une vérification des données" style="text;html=1;align=center;verticalAlign=middle;resizable=0;points=[];autosize=1;" parent="1" vertex="1">
          <mxGeometry x="184" y="1740" width="530" height="20" as="geometry" />
        </mxCell>
        <mxCell id="bp1Jh9y0F7wbUH62DtqD-70" value="" style="html=1;verticalAlign=bottom;startArrow=block;startFill=1;endArrow=oval;startSize=8;endFill=1;" parent="1" edge="1">
          <mxGeometry x="0.0014" y="10" width="60" relative="1" as="geometry">
            <mxPoint x="134.37000000000012" y="1760" as="sourcePoint" />
            <mxPoint x="770" y="1760" as="targetPoint" />
            <mxPoint as="offset" />
          </mxGeometry>
        </mxCell>
        <mxCell id="bp1Jh9y0F7wbUH62DtqD-71" value="16.2 L&#39;utilisateur corrige et valide le formulaire" style="text;html=1;align=center;verticalAlign=middle;resizable=0;points=[];autosize=1;" parent="1" vertex="1">
          <mxGeometry x="310" y="1780" width="260" height="20" as="geometry" />
        </mxCell>
        <mxCell id="bp1Jh9y0F7wbUH62DtqD-72" value="" style="html=1;verticalAlign=bottom;startArrow=oval;startFill=1;endArrow=block;startSize=8;" parent="1" edge="1">
          <mxGeometry x="-1" y="71" width="60" relative="1" as="geometry">
            <mxPoint x="139.7814285714287" y="1800" as="sourcePoint" />
            <mxPoint x="770.2100000000003" y="1800" as="targetPoint" />
            <Array as="points">
              <mxPoint x="720.71" y="1800" />
            </Array>
            <mxPoint x="-50" y="21" as="offset" />
          </mxGeometry>
        </mxCell>
        <mxCell id="WXvjH9I04tcjTVUaUVk6-1" value="&lt;b&gt;&lt;u&gt;Scénario alternatif : Le produit n&#39;est plus disponible&lt;/u&gt;&lt;/b&gt;" style="text;html=1;align=center;verticalAlign=middle;resizable=0;points=[];autosize=1;" vertex="1" parent="1">
          <mxGeometry x="265" y="2170" width="310" height="20" as="geometry" />
        </mxCell>
        <mxCell id="WXvjH9I04tcjTVUaUVk6-2" value="" style="shape=umlLifeline;participant=umlActor;perimeter=lifelinePerimeter;whiteSpace=wrap;html=1;container=1;collapsible=0;recursiveResize=0;verticalAlign=top;spacingTop=36;outlineConnect=0;size=40;" vertex="1" parent="1">
          <mxGeometry x="130" y="2200" width="20" height="360" as="geometry" />
        </mxCell>
        <mxCell id="WXvjH9I04tcjTVUaUVk6-3" value="" style="shape=umlLifeline;participant=umlEntity;perimeter=lifelinePerimeter;whiteSpace=wrap;html=1;container=1;collapsible=0;recursiveResize=0;verticalAlign=top;spacingTop=36;outlineConnect=0;" vertex="1" parent="1">
          <mxGeometry x="750" y="2200" width="40" height="360" as="geometry" />
        </mxCell>
        <mxCell id="WXvjH9I04tcjTVUaUVk6-4" value="" style="html=1;verticalAlign=bottom;startArrow=oval;startFill=1;endArrow=block;startSize=8;" edge="1" parent="1">
          <mxGeometry x="-1" y="71" width="60" relative="1" as="geometry">
            <mxPoint x="142.21" y="2280" as="sourcePoint" />
            <mxPoint x="772.21" y="2280" as="targetPoint" />
            <Array as="points">
              <mxPoint x="722.71" y="2280" />
            </Array>
            <mxPoint x="-50" y="21" as="offset" />
          </mxGeometry>
        </mxCell>
        <mxCell id="WXvjH9I04tcjTVUaUVk6-5" value="" style="html=1;verticalAlign=bottom;startArrow=block;startFill=1;endArrow=oval;startSize=8;endFill=1;" edge="1" parent="1">
          <mxGeometry x="0.0014" y="10" width="60" relative="1" as="geometry">
            <mxPoint x="137.08000000000013" y="2320" as="sourcePoint" />
            <mxPoint x="766.3300000000004" y="2320" as="targetPoint" />
            <mxPoint as="offset" />
          </mxGeometry>
        </mxCell>
        <mxCell id="WXvjH9I04tcjTVUaUVk6-6" value="" style="html=1;verticalAlign=bottom;startArrow=oval;startFill=1;endArrow=block;startSize=8;" edge="1" parent="1">
          <mxGeometry x="-1" y="71" width="60" relative="1" as="geometry">
            <mxPoint x="142.4914285714287" y="2360" as="sourcePoint" />
            <mxPoint x="772.9200000000003" y="2360" as="targetPoint" />
            <Array as="points">
              <mxPoint x="723.4200000000001" y="2360" />
            </Array>
            <mxPoint x="-50" y="21" as="offset" />
          </mxGeometry>
        </mxCell>
        <mxCell id="WXvjH9I04tcjTVUaUVk6-7" value="" style="html=1;verticalAlign=bottom;startArrow=block;startFill=1;endArrow=oval;startSize=8;endFill=1;" edge="1" parent="1">
          <mxGeometry x="0.0014" y="10" width="60" relative="1" as="geometry">
            <mxPoint x="143.09000000000012" y="2400" as="sourcePoint" />
            <mxPoint x="772.3400000000004" y="2400" as="targetPoint" />
            <mxPoint as="offset" />
          </mxGeometry>
        </mxCell>
        <mxCell id="WXvjH9I04tcjTVUaUVk6-8" value="7.1 l&#39;utilisateur clique sur ajouter au panier" style="text;html=1;align=center;verticalAlign=middle;resizable=0;points=[];autosize=1;" vertex="1" parent="1">
          <mxGeometry x="280" y="2260" width="240" height="20" as="geometry" />
        </mxCell>
        <mxCell id="WXvjH9I04tcjTVUaUVk6-9" value="&amp;nbsp; &amp;nbsp; &amp;nbsp; &amp;nbsp; &amp;nbsp; &amp;nbsp; &amp;nbsp;7.2 Le système affiche un message d&#39;erreur indiquant que le produit n&#39;est plus disponible" style="text;html=1;align=center;verticalAlign=middle;resizable=0;points=[];autosize=1;" vertex="1" parent="1">
          <mxGeometry x="135" y="2300" width="530" height="20" as="geometry" />
        </mxCell>
        <mxCell id="WXvjH9I04tcjTVUaUVk6-10" value="7.3 L&#39;utilisateur peut créer une alerte pour être averti quand le produit sera disponible" style="text;html=1;align=center;verticalAlign=middle;resizable=0;points=[];autosize=1;" vertex="1" parent="1">
          <mxGeometry x="185" y="2340" width="470" height="20" as="geometry" />
        </mxCell>
        <mxCell id="WXvjH9I04tcjTVUaUVk6-11" value="7.4 Le système affiche un pop up demandant l&#39;email de l&#39;utilisateur" style="text;html=1;align=center;verticalAlign=middle;resizable=0;points=[];autosize=1;" vertex="1" parent="1">
          <mxGeometry x="245" y="2380" width="370" height="20" as="geometry" />
        </mxCell>
        <mxCell id="WXvjH9I04tcjTVUaUVk6-12" value="" style="html=1;verticalAlign=bottom;startArrow=oval;startFill=1;endArrow=block;startSize=8;" edge="1" parent="1">
          <mxGeometry x="-1" y="71" width="60" relative="1" as="geometry">
            <mxPoint x="140.00000000000003" y="2440" as="sourcePoint" />
            <mxPoint x="770" y="2440" as="targetPoint" />
            <Array as="points">
              <mxPoint x="720.5" y="2440" />
            </Array>
            <mxPoint x="-50" y="21" as="offset" />
          </mxGeometry>
        </mxCell>
        <mxCell id="WXvjH9I04tcjTVUaUVk6-13" value="7.5 L&#39;utilisateur renseigne son email et valide" style="text;html=1;align=center;verticalAlign=middle;resizable=0;points=[];autosize=1;" vertex="1" parent="1">
          <mxGeometry x="314" y="2420" width="250" height="20" as="geometry" />
        </mxCell>
        <mxCell id="WXvjH9I04tcjTVUaUVk6-14" value="" style="html=1;verticalAlign=bottom;startArrow=block;startFill=1;endArrow=oval;startSize=8;endFill=1;" edge="1" parent="1">
          <mxGeometry x="0.0014" y="10" width="60" relative="1" as="geometry">
            <mxPoint x="134.37000000000015" y="2480" as="sourcePoint" />
            <mxPoint x="763.6200000000003" y="2480" as="targetPoint" />
            <mxPoint as="offset" />
          </mxGeometry>
        </mxCell>
        <mxCell id="WXvjH9I04tcjTVUaUVk6-15" value="7.6 Le système envoie une confirmation puis redirige l&#39;utilisateur vers la page d&#39;accueil" style="text;html=1;align=center;verticalAlign=middle;resizable=0;points=[];autosize=1;" vertex="1" parent="1">
          <mxGeometry x="205" y="2460" width="470" height="20" as="geometry" />
        </mxCell>
        <mxCell id="WXvjH9I04tcjTVUaUVk6-16" value="&lt;b&gt;&lt;u&gt;Scénario alternatif : Achats multiples&amp;nbsp;&lt;/u&gt;&lt;/b&gt;" style="text;html=1;align=center;verticalAlign=middle;resizable=0;points=[];autosize=1;" vertex="1" parent="1">
          <mxGeometry x="329" y="2660" width="230" height="20" as="geometry" />
        </mxCell>
        <mxCell id="WXvjH9I04tcjTVUaUVk6-17" value="" style="shape=umlLifeline;participant=umlActor;perimeter=lifelinePerimeter;whiteSpace=wrap;html=1;container=1;collapsible=0;recursiveResize=0;verticalAlign=top;spacingTop=36;outlineConnect=0;size=40;" vertex="1" parent="1">
          <mxGeometry x="125" y="2680" width="20" height="360" as="geometry" />
        </mxCell>
        <mxCell id="WXvjH9I04tcjTVUaUVk6-18" value="" style="shape=umlLifeline;participant=umlEntity;perimeter=lifelinePerimeter;whiteSpace=wrap;html=1;container=1;collapsible=0;recursiveResize=0;verticalAlign=top;spacingTop=36;outlineConnect=0;" vertex="1" parent="1">
          <mxGeometry x="745" y="2680" width="40" height="360" as="geometry" />
        </mxCell>
        <mxCell id="WXvjH9I04tcjTVUaUVk6-19" value="" style="html=1;verticalAlign=bottom;startArrow=oval;startFill=1;endArrow=block;startSize=8;" edge="1" parent="1">
          <mxGeometry x="-1" y="71" width="60" relative="1" as="geometry">
            <mxPoint x="137.21000000000004" y="2760" as="sourcePoint" />
            <mxPoint x="767.21" y="2760" as="targetPoint" />
            <Array as="points">
              <mxPoint x="717.71" y="2760" />
            </Array>
            <mxPoint x="-50" y="21" as="offset" />
          </mxGeometry>
        </mxCell>
        <mxCell id="WXvjH9I04tcjTVUaUVk6-20" value="" style="html=1;verticalAlign=bottom;startArrow=block;startFill=1;endArrow=oval;startSize=8;endFill=1;" edge="1" parent="1">
          <mxGeometry x="0.0014" y="10" width="60" relative="1" as="geometry">
            <mxPoint x="132.08000000000015" y="2800" as="sourcePoint" />
            <mxPoint x="761.3300000000004" y="2800" as="targetPoint" />
            <mxPoint as="offset" />
          </mxGeometry>
        </mxCell>
        <mxCell id="WXvjH9I04tcjTVUaUVk6-21" value="" style="html=1;verticalAlign=bottom;startArrow=oval;startFill=1;endArrow=block;startSize=8;" edge="1" parent="1">
          <mxGeometry x="-1" y="71" width="60" relative="1" as="geometry">
            <mxPoint x="137.49142857142874" y="2840" as="sourcePoint" />
            <mxPoint x="767.9200000000003" y="2840" as="targetPoint" />
            <Array as="points">
              <mxPoint x="718.4200000000001" y="2840" />
            </Array>
            <mxPoint x="-50" y="21" as="offset" />
          </mxGeometry>
        </mxCell>
        <mxCell id="WXvjH9I04tcjTVUaUVk6-31" value="8.1 L&#39;utilisateur clique sur continuer les achats" style="text;html=1;align=center;verticalAlign=middle;resizable=0;points=[];autosize=1;" vertex="1" parent="1">
          <mxGeometry x="299" y="2740" width="260" height="20" as="geometry" />
        </mxCell>
        <mxCell id="WXvjH9I04tcjTVUaUVk6-32" value="8.2 Le système renvoie l&#39;utilisateur vers la page des produits" style="text;html=1;align=center;verticalAlign=middle;resizable=0;points=[];autosize=1;" vertex="1" parent="1">
          <mxGeometry x="250" y="2780" width="340" height="20" as="geometry" />
        </mxCell>
        <mxCell id="WXvjH9I04tcjTVUaUVk6-33" value="8.3 L&#39;utilisateur peut sélectionner d&#39;autre produit à rajouter au panier" style="text;html=1;align=center;verticalAlign=middle;resizable=0;points=[];autosize=1;" vertex="1" parent="1">
          <mxGeometry x="250" y="2820" width="380" height="20" as="geometry" />
        </mxCell>
      </root>
    </mxGraphModel>
  </diagram>
</mxfile>
